<svg viewBox="0 0 54.2 37.3" xmlns="http://www.w3.org/2000/svg" xmlns:xlink="http://www.w3.org/1999/xlink">
    <style>
        :root&gt;

        svg {
            display: none
        }

        :root&gt;

        svg:target {
            display: block
        }
    </style><svg version="1.1" id="icon-1" x="0" y="0" viewBox="8 4.3 32 37.3" xml:space="preserve"
        xmlns="http://www.w3.org/2000/svg">
        <path
            d="M24 41.7c8.8 0 16-7.2 16-16-8.8 0-16 7.1-16 16zM12.6 20.8c0 2.5 2 4.4 4.4 4.4.9 0 1.8-.3 2.5-.8v.3c0 2.5 2 4.4 4.4 4.4 2.5 0 4.4-2 4.4-4.4v-.3a4.376 4.376 0 006.9-3.6c0-1.8-1-3.3-2.5-4 1.5-.7 2.5-2.2 2.5-4 0-2.5-2-4.4-4.4-4.4-.9 0-1.8.3-2.5.8v-.3c0-2.5-2-4.4-4.4-4.4-2.5 0-4.4 2-4.4 4.4v.3a4.376 4.376 0 00-6.9 3.6c0 1.8 1 3.3 2.5 4-1.4.7-2.5 2.2-2.5 4zM24 12.3c2.5 0 4.4 2 4.4 4.4 0 2.5-2 4.4-4.4 4.4-2.5 0-4.4-2-4.4-4.4 0-2.4 1.9-4.4 4.4-4.4zM8 25.7c0 8.8 7.2 16 16 16 0-8.9-7.2-16-16-16z"
            fill="#63d1bb" /></svg><svg version="1.1" id="icon-2" x="0" y="0" viewBox="0 0 34.4 34.4"
        xml:space="preserve" xmlns="http://www.w3.org/2000/svg">
        <path
            d="M.3 14.1c-.4 2.1-.4 4.2 0 6.3l4.1-3.2-4.1-3.1zM24.4 1.6C19.6-.6 14-.6 9.1 2l7.5 5.6 7.8-6zm9.5 11.6l-4.8 3.7 4.9 3.7c.5-2.4.5-5-.1-7.4zM9.2 32.4c4.8 2.5 10.7 2.7 15.7.1l-8.1-6.1-7.6 6zm-1.3-18L1.7 9.8c-.3.7-.6 1.4-.8 2.1l5.3 4 1.7-1.5zm10.7 10.7l8.3 6.2c.3-.2.6-.4.8-.6.3-.2.6-.5.9-.8l-8.3-6.2-1.7 1.4zm-7.2-13.4L4 6.2c-.5.5-.9 1.1-1.3 1.7l6.9 5.2 1.8-1.4zm10.7 10.7l8.1 6.1c.5-.5.9-1.1 1.3-1.7L23.8 21l-1.7 1.4zM14.9 9L7.2 3.2c-.2.1-.4.3-.6.4-.4.3-.8.6-1.1 1l7.7 5.7L14.9 9zm10.7 10.6l7 5.2c.3-.7.6-1.3.9-2l-6.1-4.6-1.8 1.4zm.8-16.9L.9 22.6c.2.7.5 1.4.8 2.1L28.2 4c-.5-.5-1.1-.9-1.8-1.3zm4.3 3.9c-.3-.4-.6-.8-.9-1.1l-27 21c.2.5.5.9.8 1.2.1.2.3.4.4.5l27.2-21c-.2-.2-.3-.4-.5-.6zM32.3 9L5.6 29.8c.5.5 1.1 1 1.7 1.4l26-20.2c-.3-.7-.6-1.4-1-2z"
            fill="#6cc7b6" /></svg><svg version="1.1" id="icon-3" x="0" y="0" viewBox="46.2 56.8 46.6 27.3"
        xml:space="preserve" xmlns="http://www.w3.org/2000/svg">
        <style>
            .cst0 {
                fill: #63d1bb
            }
        </style>
        <path class="cst0"
            d="M88.9 56.8H50.1c-2.2 0-3.9 1.7-3.9 3.9v19.5c0 2.2 1.7 3.9 3.9 3.9h38.8c2.2 0 3.9-1.7 3.9-3.9V60.7c0-2.1-1.8-3.9-3.9-3.9zm-39.7 25V59.6h40.2v22.2H49.2z"
            fill="#63d1bb" />
        <path class="cst0"
            d="M53.1 77.9h32.4V63.5H53.1v14.4zm16.4-12.5c2.9 0 5.3 2.4 5.3 5.3S72.4 76 69.5 76s-5.3-2.4-5.3-5.3c0-3 2.4-5.3 5.3-5.3z"
            fill="#63d1bb" />
    </svg><svg version="1.1" id="icon-4" x="0" y="0" viewBox="612.5 500.4 54.2 23.2" xml:space="preserve"
        xmlns="http://www.w3.org/2000/svg">
        <path
            d="M652.8 506.1c-3.6-1-7.8-1.7-12.4-1.7-2.9 0-5.5.2-7.7.6l-6.8-4.7h-13.5l5.8 6.2h8.4c-4.6 1.6-6.8 3.5-6.8 3.5v3.8s2.3 1.9 6.9 3.5h-8.6l-5.8 6.2h13.5l6.8-4.7c2.3.4 4.8.6 7.7.6 4.5 0 8.7-.7 12.4-1.7-1.2-1.8-1.9-3.7-1.9-5.9.1-2 .9-3.9 2-5.7zm3.5 1c-1.3 1.6-2 3.2-2 4.8 0 1.6.7 3.2 2 4.8 6.4-2.2 10.4-4.8 10.4-4.8s-4-2.6-10.4-4.8z"
            fill="#63d1bb" /></svg><svg version="1.1" id="icon-5" x="0" y="0" viewBox="47.5 50.1 33.1 27.9"
        xml:space="preserve" xmlns="http://www.w3.org/2000/svg">
        <path
            d="M80.5 58.8c0-4.8-3.9-8.7-8.7-8.7-3.4 0-6.3 2-7.8 4.8-1.4-2.8-4.4-4.8-7.8-4.8-4.8 0-8.7 3.9-8.7 8.7 0 9.1 14.7 19.1 16.5 19.1 1.9 0 16.5-9.9 16.5-19.1z"
            fill="#63d1bb" /></svg><svg version="1.1" id="icon-6" x="0" y="0" viewBox="239.7 239.8 32.7 32.5"
        xml:space="preserve" xmlns="http://www.w3.org/2000/svg">
        <path
            d="M242.6 272.2h12.5v-13.9h-12.5v13.9zm28.1-23.6h-7.3c.5-.3 1-.5 1.4-.8 1.6-1.1 2.4-2.6 2.4-4 0-1.2-.6-2.2-1.4-2.9-.8-.7-1.9-1.1-3-1.1-1.2 0-2.4.4-3.3 1.1-1.5 1-2.6 2.5-3.4 4.1 0 .1-.1.2-.1.2-.3-.6-.6-1.2-1-1.8-.7-1-1.5-1.9-2.5-2.5-1-.6-2.1-1.1-3.3-1.1-1.2 0-2.3.5-3.2 1.3-.8.8-1.4 1.9-1.4 3.1 0 .7.2 1.5.6 2.2.6.9 1.4 1.6 2.6 2.2h-6.6c-.9 0-1.6.7-1.6 1.6v5.9H255v-7.5h1.9v7.5h15.4v-5.9c0-.9-.7-1.6-1.6-1.6m-22.3-2.3c-.6-.4-1-.8-1.2-1.1-.2-.4-.3-.7-.3-1 0-.5.2-1 .7-1.5.4-.4 1-.7 1.6-.7.7 0 1.4.2 2 .7 1 .7 2 1.8 2.6 3.2.3.7.6 1.4.8 2.1-3.1-.3-5.1-1-6.2-1.7m10.5-1.6c.6-.8 1.2-1.5 1.9-1.9.7-.5 1.4-.7 2-.7.6 0 1.1.2 1.5.5.4.3.6.7.6 1.2s-.3 1.3-1.5 2.1c-1.1.8-3.1 1.7-6.1 2.3.3-1.2.9-2.5 1.6-3.5m-2 27.5h12.5v-13.9h-12.5v13.9z"
            fill="#63d1bb" /></svg>
</svg>