<?xml version="1.0" encoding="utf-8"?><svg viewBox="0 0 60 62.41" xmlns="http://www.w3.org/2000/svg" xmlns:xlink="http://www.w3.org/1999/xlink"><style>:root>svg{display:none}:root>svg:target{display:block}</style><svg viewBox="-259.4 -19.67 40.22 62.41" id="interior" xmlns="http://www.w3.org/2000/svg"><g fill="#3BB09D"><path d="M-244.23 18.28c-.29.97-.24 2.19.03 3.64.49 2.63 1.69 6.04 2.36 9.67h5.06c.7-3.64 1.95-7.05 2.47-9.68.29-1.45.33-2.66.04-3.62-.27-.9-.89-1.62-2.02-2.3h-6c-1.07.68-1.67 1.39-1.94 2.29zM-232.4 38.28h-13.8c-1.29 0-2.3.98-2.3 2.23v2.23H-230.1v-2.23c0-1.26-1-2.23-2.3-2.23zM-225.26-17.45h-11.73c0-1.24-1.02-2.23-2.3-2.23-1.28 0-2.3.98-2.3 2.23h-11.74l-6.07 25.52c.79-.46 1.59-.99 2.63-.99 1.36 0 2.24.82 2.92 1.38.68.56 1.16.85 1.45.85.29 0 .77-.29 1.45-.84.68-.55 1.56-1.36 2.92-1.36 1.35 0 2.24.81 2.92 1.35.68.55 1.16.84 1.45.84.15 0 .34-.07.58-.21.24-.14.53-.35.87-.63.51-.41 1.14-.97 1.99-1.22.28-.09.59-.14.93-.14 1.35 0 2.24.81 2.92 1.35.68.55 1.16.84 1.45.84.29 0 .77-.3 1.45-.85.68-.55 1.57-1.37 2.92-1.37 1.36 0 2.24.82 2.92 1.37.34.28.63.49.87.63s.43.21.57.21c.29 0 .76-.29 1.44-.85.68-.56 1.57-1.38 2.93-1.38 1.04 0 1.84.53 2.63 1l-6.07-25.5zM-235.88 33.82h-6.86c-.66 0-1.15.48-1.15 1.12 0 .63.49 1.11 1.15 1.11h6.9c.66 0 1.15-.48 1.15-1.11 0-.64-.49-1.12-1.15-1.12h-.04zM-239.29 9.34c-.15 0-.34.07-.58.21-.16.09-.37.26-.57.41v3.73h2.3V9.96c-.51-.38-.91-.62-1.15-.62z"/></g></svg><svg viewBox="226 226.19 60 59.62" id="toy" xmlns="http://www.w3.org/2000/svg"><path fill="#3BB09D" d="M226 269.87l27.44 15.93v-23.35L226 246.52v23.35zm51.35-31.24v2.45c0 1.82-3.46 3.29-7.73 3.29-4.27 0-7.73-1.47-7.73-3.29v-4.06h.02c.26 1.71 3.6 3.07 7.7 3.07 4.27 0 7.73-1.47 7.73-3.28 0-1.82-3.46-3.29-7.73-3.29-.34 0-.67.01-1 .03l-4.97-2.89v3.09c0 1.82-3.45 3.29-7.72 3.29-2.68 0-5.04-.58-6.43-1.47-.2-.2-.44-.4-.73-.59-.36-.38-.57-.8-.57-1.24v-2.99l-4.81 2.79c-.35-.02-.7-.03-1.05-.03-4.27 0-7.73 1.47-7.73 3.29 0 1.81 3.46 3.28 7.73 3.28 4.1 0 7.45-1.36 7.7-3.07h.02v4.06c0 1.82-3.46 3.29-7.73 3.29-4.27 0-7.73-1.47-7.73-3.29v-2.42l-5.95 3.45 27.53 15.99 27.35-15.88-6.17-3.58zm-13.65 10.16c0 1.82-3.46 3.29-7.73 3.29-4.27 0-7.73-1.47-7.73-3.29v-4.06h.02c.26 1.71 3.6 3.08 7.71 3.08 4.1 0 7.44-1.36 7.7-3.08h.02v4.06h.01zm-5.14 13.88v23.14L286 269.87v-23.14l-27.44 15.94zm-2.64-29.91c4.27 0 7.72-1.47 7.72-3.29 0-1.81-3.45-3.29-7.72-3.29s-7.73 1.47-7.73 3.29 3.46 3.29 7.73 3.29"/></svg></svg>