<svg viewBox="0 0 20.29 18.85" xmlns="http://www.w3.org/2000/svg" xmlns:xlink="http://www.w3.org/1999/xlink"><style>:root&gt;svg{display:none}:root&gt;svg:target{display:block}</style><svg viewBox="264.21 370.96 20.29 18.85" id="cart" xmlns="http://www.w3.org/2000/svg"><path d="M283.75 378.19h-3.15l-3.41-6.81a.76.76 0 00-1.01-.34c-.37.19-.52.64-.34 1.01l3.07 6.14h-9.14l3.07-6.14c.19-.37.04-.82-.34-1.01a.763.763 0 00-1.01.34l-3.41 6.81h-3.15c-.41 0-.75.34-.75.75s.34.75.75.75h.16l.85 2.99c-.19.14-.32.35-.32.6 0 .4.31.71.7.74l1.66 5.79h12.7l1.66-5.79c.39-.03.7-.34.7-.74 0-.25-.13-.46-.32-.6l.85-2.99h.16c.41 0 .75-.34.75-.75a.726.726 0 00-.73-.75zm-4.18 10.12h-10.43l-1.22-4.28h12.88l-1.23 4.28zm1.65-5.78h-13.74l-.81-2.84h15.36l-.81 2.84z"/></svg><svg viewBox="-1 -1 18 18" id="search" xmlns="http://www.w3.org/2000/svg"><path d="M16.47 14.93l-3.41-3.42a7.702 7.702 0 001.54-4.62c0-4.25-3.45-7.7-7.7-7.7S-.8 2.64-.8 6.89s3.45 7.7 7.7 7.7c1.73 0 3.33-.58 4.61-1.55l3.42 3.42c.2.2.42.33.77.33.61 0 1.1-.49 1.1-1.1 0-.23-.06-.49-.33-.76zM1.4 6.9c0-3.04 2.46-5.5 5.5-5.5s5.5 2.46 5.5 5.5-2.46 5.5-5.5 5.5-5.5-2.46-5.5-5.5z"/></svg></svg>